Coordinates
version=1
nRows=11
nColumns=36
inDegrees=yes

Units are S.I. units (second, meters, Newtons, ...)
If the header above contains a line with 'inDegrees', this indicates whether rotational values are in degrees (yes) or radians (no).

endheader
time	pelvis_tilt	pelvis_list	pelvis_rotation	pelvis_tx	pelvis_ty	pelvis_tz	hip_flexion_r	hip_adduction_r	hip_rotation_r	knee_angle_r	knee_angle_r_beta	ankle_angle_r	subtalar_angle_r	mtp_angle_r	hip_flexion_l	hip_adduction_l	hip_rotation_l	knee_angle_l	knee_angle_l_beta	ankle_angle_l	subtalar_angle_l	mtp_angle_l	lumbar_extension	lumbar_bending	lumbar_rotation	arm_flex_r	arm_add_r	arm_rot_r	elbow_flex_r	pro_sup_r	arm_flex_l	arm_add_l	arm_rot_l	elbow_flex_l	pro_sup_l
     44.53333330	     -5.77049948	     -6.12774020	      4.00859110	      0.94030071	      0.81038317	      0.72132267	     19.23275590	      8.09793118	     -1.74788655	     16.89339834	      0.29484542	      9.78379223	     -9.87694310	     -7.49999987	     14.64658311	     -7.72488621	      1.60301799	     62.29213359	      1.08720283	     -9.06460954	     -5.94830267	     -7.49999987	      9.12272838	      7.61578946	     -6.32414626	     -2.57194996	    -15.69055204	      1.46141376	     12.07189269	    100.69488440	      3.41075369	    -10.45155351	      7.66532362	     13.59806921	     95.68287830
     44.55000000	     -5.77423979	     -5.55142462	      4.17111626	      0.93947924	      0.81239564	      0.72150437	     17.49939188	      7.67720655	     -1.78025134	     16.06363838	      0.28036338	     10.66699908	     -9.24271589	     -7.49999987	     17.21217884	     -6.63386487	      1.42801333	     63.53518444	      1.10889816	     -6.56060653	     -7.57345232	     -7.49999987	      8.71421015	      7.07053865	     -5.62226208	     -1.84241080	    -15.70750628	      3.72694890	     13.04615230	     98.48320303	      3.29119047	    -10.48652763	     10.73148013	     11.58166887	     96.03991994
     44.56666670	     -5.57652359	     -4.78351887	      4.01089523	      0.93878374	      0.81536847	      0.72190788	     15.43957207	      7.17016530	     -1.25785774	     15.05374982	      0.26273750	     11.27922541	     -8.85831190	     -7.49999987	     19.32322899	     -5.53460499	      0.70910426	     63.69459159	      1.11168034	     -3.42753167	     -8.77493839	     -7.49999987	      7.84413411	      6.32935570	     -4.60364503	     -0.69957299	    -15.58141954	      4.92792600	     13.74752647	     95.54409443	      2.78364309	    -10.66610669	     11.61158170	     11.03227898	     94.61369112
     44.58333330	     -5.39044558	     -3.97962975	      3.77360091	      0.93680642	      0.81900300	      0.72257553	     13.43044148	      6.50266564	     -1.02594713	     14.13705734	      0.24673820	     11.87588277	     -8.06311074	     -7.49999987	     21.44866990	     -4.43572147	     -0.01868200	     62.90567602	      1.09791116	     -0.04078795	     -9.72378215	     -7.49999987	      6.88509892	      5.57314684	     -3.62564938	      0.71847145	    -15.49797488	      5.02781662	     14.39840579	     92.96155213	      2.38401960	    -10.73993070	     11.65764463	     10.52522894	     92.37415771
     44.60000000	     -5.12692059	     -3.15281636	      3.31797926	      0.93300358	      0.82218732	      0.72403383	     11.41458386	      5.79678315	     -0.79974037	     13.36164646	      0.23320472	     12.52609843	     -7.07949704	     -7.49999987	     23.45710797	     -3.50763851	     -0.90004795	     61.12976906	      1.06691574	      2.92884602	    -10.25502415	     -7.49999987	      5.73752340	      4.83153407	     -2.29654769	      2.24208535	    -15.68548100	      6.32243873	     15.12914298	     92.84868525	      2.11113927	    -10.89907654	     12.22173776	     10.48696649	     94.69818430
     44.61666670	     -4.82606439	     -2.33950735	      2.82079034	      0.92835851	      0.82355085	      0.72536384	      9.47940947	      5.06619402	     -0.65043720	     12.68507788	      0.22139637	     12.83797861	     -6.34075889	     -7.49999987	     25.19891540	     -2.69347189	     -1.74965060	     58.29988557	      1.01752496	      4.78298178	    -10.64380961	     -7.49999987	      4.43109853	      4.04317988	     -1.00373503	      3.74406317	    -15.77002744	      6.29168777	     16.28899647	     90.45364401	      1.91549744	    -10.94026660	     12.01723186	     10.52812649	     92.44386023
     44.63333330	     -4.71811347	     -1.63985784	      2.17197546	      0.92518234	      0.82327469	      0.72642752	      7.98360587	      4.45373143	     -0.42975875	     12.22022027	      0.21328308	     13.05835183	     -5.71948785	     -7.49999987	     26.77585168	     -2.09973396	     -2.64401197	     54.74386080	      0.95546062	      5.58586379	    -10.86273558	     -7.49999987	      3.41873543	      3.35541353	      0.26964485	      5.42257738	    -15.92873606	      6.33711777	     17.50544187	     90.28586786	      1.57010717	    -10.94163827	     11.87515476	     10.66822377	     92.38065353
     44.65000000	     -4.47887068	     -1.16625613	      1.57248402	      0.92372360	      0.82273038	      0.72740261	      6.47357112	      4.05272532	     -0.47529700	     11.73665588	      0.20484329	     13.39680564	     -4.81165679	     -7.49999987	     27.87738077	     -1.70104816	     -3.27652077	     50.72489557	      0.88531644	      6.07394024	    -10.62042874	     -7.49999987	      2.34719610	      2.84857787	      1.77475341	      6.84121048	    -16.47582805	      7.21404308	     19.29472997	     88.91654747	      1.48385687	    -10.74067764	     11.59306352	     10.37233740	     91.55952975
     44.66666670	     -4.31224043	     -0.87043105	      0.85880947	      0.92180434	      0.82201455	      0.72892206	      5.21406896	      3.84331564	     -0.24386915	     11.39614465	      0.19890025	     13.67845421	     -4.41543736	     -7.49999987	     28.83751545	     -1.52202726	     -3.78630350	     46.41249781	      0.81005090	      6.49843184	    -10.01282741	     -7.49999987	      1.42344073	      2.52153251	      3.01589202	      8.48353211	    -16.83501679	      6.94832555	     20.78778028	     86.40240586	      0.93207491	    -10.55104397	     11.22567969	     10.58668837	     88.94276309
     44.68333330	     -4.48018577	     -0.84818343	      0.21001036	      0.91855358	      0.82044009	      0.72990239	      4.55998282	      3.82726616	     -0.60782045	     11.49468139	      0.20062004	     14.18294565	     -3.50673511	     -7.49999987	     30.11178294	     -1.59523214	     -4.04362889	     41.96169870	      0.73236980	      6.88182070	     -9.08573834	     -7.49999987	      1.15631331	      2.47920507	      4.18908331	      9.82739035	    -17.49725400	      7.42382092	     22.14305037	     89.49969342	      0.38963975	    -10.18721560	      8.38745057	     10.32163026	     94.08995058
     44.70000000	     -4.65492084	     -0.90763877	     -0.50063827	      0.91561372	      0.81855437	      0.72971251	      3.96453017	      3.88961104	     -0.64699513	     11.82295858	      0.20634955	     14.60627778	     -2.96999010	     -7.49999987	     31.18794684	     -1.83302147	     -4.29053515	     37.08206246	      0.64720408	      6.90224959	     -7.99103669	     -7.49999987	      0.89557395	      2.51923568	      5.33009266	     10.88241655	    -17.95256929	      7.12044797	     23.68732230	     86.50142274	     -0.18429221	     -9.83908458	      7.88405771	     10.08746389	     90.66888227
